<svg width="48" height="48" viewBox="0 0 48 48" fill="none" xmlns="http://www.w3.org/2000/svg">
<rect width="48" height="48" rx="4" fill="#F9FAFB"/>
<path d="M10.4566 18.3487C11.5516 16.8383 13.0431 15.6112 14.931 14.6673C16.8566 13.6855 18.99 13.1947 21.331 13.1947C24.0873 13.1947 26.5794 13.8555 28.8071 15.177C31.0348 16.4985 32.7906 18.3864 34.0743 20.8407C35.3581 23.2572 36 26.0324 36 29.1664C36 32.3003 35.3581 35.1133 34.0743 37.6053C32.7906 40.0596 31.0159 41.9852 28.7504 43.3823C26.5227 44.7416 24.0496 45.4212 21.331 45.4212C18.9145 45.4212 16.7622 44.9493 14.8743 44.0053C13.0242 43.0614 11.5516 41.8531 10.4566 40.3805V44.9115H4V3H10.4566V18.3487ZM29.4301 29.1664C29.4301 27.0142 28.977 25.164 28.0708 23.6159C27.2024 22.0301 26.0319 20.8407 24.5593 20.0478C23.1245 19.2171 21.5764 18.8018 19.915 18.8018C18.2914 18.8018 16.7434 19.2171 15.2708 20.0478C13.836 20.8785 12.6655 22.0867 11.7593 23.6726C10.8909 25.2584 10.4566 27.1274 10.4566 29.2796C10.4566 31.4319 10.8909 33.3198 11.7593 34.9434C12.6655 36.5292 13.836 37.7375 15.2708 38.5681C16.7434 39.3988 18.2914 39.8142 19.915 39.8142C21.5764 39.8142 23.1245 39.3988 24.5593 38.5681C26.0319 37.6997 27.2024 36.4537 28.0708 34.8301C28.977 33.2065 29.4301 31.3186 29.4301 29.1664Z" fill="black"/>
<path d="M43.4683 25.5311C43.3024 25.363 43.1052 25.2295 42.8879 25.1383C42.6706 25.0472 42.4375 25.0002 42.2021 25C41.7569 25.0001 41.3279 25.1684 41.0001 25.4718C40.6723 25.1684 40.2433 25 39.798 25C39.5623 25.0002 39.329 25.0474 39.1115 25.1388C38.894 25.2301 38.6966 25.3639 38.5307 25.5323C37.8229 26.2478 37.8232 27.3669 38.5313 28.0794L41.0001 30.5645L43.4689 28.0794C44.177 27.3669 44.1773 26.2478 43.4683 25.5311Z" fill="#E21D4B"/>
<rect x="40" y="32" width="2" height="13" fill="#1F2937"/>
<path d="M43.4683 3.5311C43.3024 3.36297 43.1052 3.22949 42.8879 3.13834C42.6706 3.0472 42.4375 3.00018 42.2021 3C41.7569 3.00007 41.3279 3.16844 41.0001 3.47175C40.6723 3.16839 40.2433 3.00001 39.798 3C39.5623 3.00025 39.329 3.04741 39.1115 3.13876C38.894 3.23012 38.6966 3.36387 38.5307 3.53231C37.8229 4.24782 37.8232 5.36695 38.5313 6.07942L41.0001 8.56446L43.4689 6.07942C44.177 5.36695 44.1773 4.24782 43.4683 3.5311Z" fill="#E21D4B"/>
<path d="M43.4683 14.5311C43.3024 14.363 43.1052 14.2295 42.8879 14.1383C42.6706 14.0472 42.4375 14.0002 42.2021 14C41.7569 14.0001 41.3279 14.1684 41.0001 14.4718C40.6723 14.1684 40.2433 14 39.798 14C39.5623 14.0002 39.329 14.0474 39.1115 14.1388C38.894 14.2301 38.6966 14.3639 38.5307 14.5323C37.8229 15.2478 37.8232 16.3669 38.5313 17.0794L41.0001 19.5645L43.4689 17.0794C44.177 16.3669 44.1773 15.2478 43.4683 14.5311Z" fill="#E21D4B"/>
</svg>
