<svg width="120" height="18" viewBox="0 0 120 18" fill="none" xmlns="http://www.w3.org/2000/svg">
<path d="M108.217 11.9861C108.217 10.8266 108.453 9.79981 108.925 8.90575C109.411 8.01169 110.063 7.32018 110.882 6.83124C111.715 6.32833 112.638 6.07688 113.651 6.07688C114.4 6.07688 115.136 6.24452 115.857 6.57979C116.593 6.90109 117.176 7.33415 117.606 7.87897V2.30505H120V17.8114H117.606V16.0722C117.217 16.631 116.676 17.092 115.982 17.4552C115.302 17.8184 114.518 18 113.63 18C112.631 18 111.715 17.7486 110.882 17.2457C110.063 16.7288 109.411 16.0163 108.925 15.1083C108.453 14.1863 108.217 13.1456 108.217 11.9861ZM117.606 12.028C117.606 11.2317 117.44 10.5402 117.106 9.95348C116.787 9.36675 116.364 8.91972 115.837 8.61238C115.309 8.30505 114.74 8.15138 114.129 8.15138C113.519 8.15138 112.95 8.30505 112.422 8.61238C111.895 8.90575 111.465 9.34579 111.132 9.93252C110.813 10.5053 110.653 11.1898 110.653 11.9861C110.653 12.7823 110.813 13.4808 111.132 14.0815C111.465 14.6822 111.895 15.1432 112.422 15.4645C112.964 15.7719 113.533 15.9255 114.129 15.9255C114.74 15.9255 115.309 15.7719 115.837 15.4645C116.364 15.1572 116.787 14.7102 117.106 14.1234C117.44 13.5227 117.606 12.8243 117.606 12.028Z" fill="#1F2937"/>
<path d="M103.912 7.9418C104.259 7.35507 104.717 6.90106 105.286 6.57975C105.869 6.24448 106.556 6.07684 107.347 6.07684V8.54948H106.743C105.814 8.54948 105.106 8.78697 104.62 9.26194C104.148 9.73691 103.912 10.5611 103.912 11.7346V17.8114H101.539V6.26543H103.912V7.9418Z" fill="#1F2937"/>
<path d="M87.1597 11.986C87.1597 10.8265 87.3956 9.79977 87.8675 8.90571C88.3532 8.01165 89.0055 7.32015 89.8243 6.83121C90.657 6.3283 91.573 6.07684 92.5723 6.07684C93.4744 6.07684 94.2585 6.25845 94.9246 6.62166C95.6047 6.97091 96.146 7.41095 96.5484 7.9418V6.26543H98.9425V17.8114H96.5484V16.0931C96.146 16.638 95.5978 17.092 94.9038 17.4552C94.2099 17.8184 93.4188 18 92.5306 18C91.5453 18 90.6432 17.7485 89.8243 17.2456C89.0055 16.7288 88.3532 16.0163 87.8675 15.1083C87.3956 14.1863 87.1597 13.1455 87.1597 11.986ZM96.5484 12.0279C96.5484 11.2317 96.3819 10.5402 96.0488 9.95344C95.7296 9.36671 95.3063 8.91968 94.7789 8.61235C94.2515 8.30501 93.6825 8.15135 93.0719 8.15135C92.4612 8.15135 91.8922 8.30501 91.3648 8.61235C90.8375 8.90571 90.4072 9.34576 90.0741 9.93249C89.7549 10.5052 89.5953 11.1898 89.5953 11.986C89.5953 12.7823 89.7549 13.4808 90.0741 14.0815C90.4072 14.6822 90.8375 15.1432 91.3648 15.4645C91.9061 15.7718 92.4751 15.9255 93.0719 15.9255C93.6825 15.9255 94.2515 15.7718 94.7789 15.4645C95.3063 15.1572 95.7296 14.7101 96.0488 14.1234C96.3819 13.5227 96.5484 12.8242 96.5484 12.0279Z" fill="#1F2937"/>
<path d="M80.171 18C79.0884 18 78.11 17.7555 77.2357 17.2666C76.3613 16.7637 75.6744 16.0652 75.1747 15.1711C74.6751 14.2631 74.4253 13.2154 74.4253 12.0279C74.4253 10.8545 74.682 9.81374 75.1955 8.90571C75.709 7.99768 76.4099 7.29919 77.2981 6.81025C78.1863 6.32131 79.1787 6.07684 80.275 6.07684C81.3714 6.07684 82.3638 6.32131 83.252 6.81025C84.1402 7.29919 84.8411 7.99768 85.3546 8.90571C85.8681 9.81374 86.1248 10.8545 86.1248 12.0279C86.1248 13.2014 85.8611 14.2421 85.3337 15.1502C84.8064 16.0582 84.0847 16.7637 83.1687 17.2666C82.2666 17.7555 81.2674 18 80.171 18ZM80.171 15.9255C80.7816 15.9255 81.3506 15.7788 81.878 15.4855C82.4193 15.1921 82.8564 14.752 83.1895 14.1653C83.5226 13.5786 83.6891 12.8661 83.6891 12.0279C83.6891 11.1898 83.5295 10.4843 83.2103 9.91153C82.8911 9.3248 82.4678 8.88476 81.9405 8.59139C81.4131 8.29803 80.8441 8.15135 80.2334 8.15135C79.6228 8.15135 79.0537 8.29803 78.5264 8.59139C78.0129 8.88476 77.6034 9.3248 77.2981 9.91153C76.9928 10.4843 76.8401 11.1898 76.8401 12.0279C76.8401 13.2712 77.1524 14.2352 77.7769 14.9197C78.4153 15.5902 79.2133 15.9255 80.171 15.9255Z" fill="#1F2937"/>
<path d="M70.3477 10.3306C71.1249 10.4703 71.7841 10.8824 72.3254 11.5669C72.8666 12.2514 73.1372 13.0267 73.1372 13.8929C73.1372 14.6333 72.9429 15.3038 72.5543 15.9045C72.1796 16.4912 71.6314 16.9592 70.9098 17.3085C70.1881 17.6437 69.3484 17.8114 68.3908 17.8114H62.6035V3.24792H68.1202C69.1056 3.24792 69.9521 3.41556 70.6599 3.75084C71.3677 4.08611 71.9021 4.54013 72.2629 5.11288C72.6237 5.67167 72.8042 6.30031 72.8042 6.9988C72.8042 7.83698 72.5821 8.53547 72.138 9.09426C71.6939 9.65304 71.0971 10.0652 70.3477 10.3306ZM64.9767 9.36666H67.912C68.6892 9.36666 69.2929 9.19204 69.7232 8.8428C70.1673 8.47959 70.3893 7.96271 70.3893 7.29216C70.3893 6.63558 70.1673 6.12569 69.7232 5.76248C69.2929 5.38529 68.6892 5.1967 67.912 5.1967H64.9767V9.36666ZM68.1826 15.8626C68.9876 15.8626 69.6191 15.667 70.0771 15.2759C70.535 14.8847 70.764 14.3399 70.764 13.6414C70.764 12.9289 70.5212 12.3632 70.0354 11.9441C69.5497 11.525 68.9043 11.3154 68.0994 11.3154H64.9767V15.8626H68.1826Z" fill="#1F2937"/>
<path d="M56.0522 8.2142H53.9288V17.8114H51.5348V8.2142H50.1816V6.26542H51.5348V5.44819C51.5348 4.12107 51.8817 3.15716 52.5757 2.55646C53.2835 1.94179 54.3868 1.63446 55.8857 1.63446V3.62515C55.164 3.62515 54.6574 3.76484 54.366 4.04424C54.0745 4.30966 53.9288 4.77765 53.9288 5.44819V6.26542H56.0522V8.2142Z" fill="#1F2937"/>
<path d="M49.4285 11.7555C49.4285 12.1886 49.4007 12.5797 49.3452 12.929H40.581C40.6504 13.851 40.9904 14.5914 41.6011 15.1502C42.2117 15.709 42.9611 15.9884 43.8494 15.9884C45.1262 15.9884 46.0283 15.4505 46.5557 14.3749H49.1162C48.7693 15.4366 48.1378 16.3097 47.2218 16.9942C46.3197 17.6647 45.1956 18 43.8494 18C42.753 18 41.7676 17.7555 40.8933 17.2666C40.0328 16.7637 39.3527 16.0652 38.8531 15.1711C38.3674 14.2631 38.1245 13.2154 38.1245 12.0279C38.1245 10.8405 38.3604 9.79977 38.8323 8.90571C39.3181 7.99768 39.9912 7.29919 40.8516 6.81025C41.726 6.32131 42.7252 6.07684 43.8494 6.07684C44.9319 6.07684 45.8964 6.31433 46.743 6.7893C47.5896 7.26427 48.2488 7.93482 48.7207 8.80094C49.1926 9.65309 49.4285 10.638 49.4285 11.7555ZM46.9512 11.0012C46.9373 10.1211 46.625 9.41561 46.0144 8.88476C45.4037 8.35391 44.6474 8.08848 43.7453 8.08848C42.9264 8.08848 42.2256 8.35391 41.6427 8.88476C41.0598 9.40164 40.7128 10.1071 40.6018 11.0012H46.9512Z" fill="#1F2937"/>
<path d="M31.7038 6.07684C32.6059 6.07684 33.4109 6.26543 34.1187 6.64262C34.8403 7.0198 35.4024 7.57859 35.8049 8.31898C36.2074 9.05938 36.4086 9.95344 36.4086 11.0012V17.8114H34.0562V11.3574C34.0562 10.3236 33.7995 9.53435 33.286 8.98953C32.7725 8.43074 32.0716 8.15135 31.1834 8.15135C30.2951 8.15135 29.5873 8.43074 29.06 8.98953C28.5465 9.53435 28.2897 10.3236 28.2897 11.3574V17.8114H25.9165V6.26543H28.2897V7.58557C28.6783 7.1106 29.171 6.74041 29.7678 6.47498C30.3784 6.20956 31.0238 6.07684 31.7038 6.07684Z" fill="#1F2937"/>
<path d="M24.1016 11.7555C24.1016 12.1886 24.0738 12.5797 24.0183 12.929H15.2541C15.3235 13.851 15.6635 14.5914 16.2742 15.1502C16.8848 15.709 17.6342 15.9884 18.5225 15.9884C19.7993 15.9884 20.7014 15.4505 21.2288 14.3749H23.7893C23.4424 15.4366 22.8109 16.3097 21.8949 16.9942C20.9928 17.6647 19.8687 18 18.5225 18C17.4261 18 16.4407 17.7555 15.5664 17.2666C14.7059 16.7637 14.0258 16.0652 13.5262 15.1711C13.0405 14.2631 12.7976 13.2154 12.7976 12.0279C12.7976 10.8405 13.0335 9.79977 13.5054 8.90571C13.9912 7.99768 14.6643 7.29919 15.5247 6.81025C16.3991 6.32131 17.3983 6.07684 18.5225 6.07684C19.605 6.07684 20.5695 6.31433 21.4161 6.7893C22.2627 7.26427 22.9219 7.93482 23.3938 8.80094C23.8657 9.65309 24.1016 10.638 24.1016 11.7555ZM21.6243 11.0012C21.6104 10.1211 21.2981 9.41561 20.6875 8.88476C20.0768 8.35391 19.3205 8.08848 18.4184 8.08848C17.5995 8.08848 16.8987 8.35391 16.3158 8.88476C15.7329 9.40164 15.3859 10.1071 15.2749 11.0012H21.6243Z" fill="#1F2937"/>
<path d="M2.37321 7.98375C2.77569 7.42496 3.32388 6.97094 4.01781 6.6217C4.72561 6.25849 5.50974 6.07688 6.3702 6.07688C7.38333 6.07688 8.2993 6.32135 9.11813 6.81029C9.93696 7.29923 10.5823 7.99772 11.0542 8.90575C11.526 9.79981 11.762 10.8266 11.762 11.9861C11.762 13.1456 11.526 14.1863 11.0542 15.1083C10.5823 16.0163 9.93002 16.7288 9.09731 17.2457C8.27849 17.7486 7.36945 18 6.3702 18C5.48198 18 4.69091 17.8254 3.99699 17.4762C3.31695 17.1269 2.77569 16.6799 2.37321 16.1351V17.8114H0V2.30505H2.37321V7.98375ZM9.34713 11.9861C9.34713 11.1898 9.18058 10.5053 8.8475 9.93252C8.5283 9.34579 8.09807 8.90575 7.55681 8.61238C7.02943 8.30505 6.46041 8.15138 5.84976 8.15138C5.25299 8.15138 4.68397 8.30505 4.14271 8.61238C3.61533 8.91972 3.1851 9.36675 2.85202 9.95348C2.53281 10.5402 2.37321 11.2317 2.37321 12.028C2.37321 12.8243 2.53281 13.5227 2.85202 14.1234C3.1851 14.7102 3.61533 15.1572 4.14271 15.4645C4.68397 15.7719 5.25299 15.9255 5.84976 15.9255C6.46041 15.9255 7.02943 15.7719 7.55681 15.4645C8.09807 15.1432 8.5283 14.6822 8.8475 14.0815C9.18058 13.4808 9.34713 12.7823 9.34713 11.9861Z" fill="#1F2937"/>
<g clip-path="url(#clip0_69_38)">
<path d="M61.4652 1.25496C61.3217 1.10951 61.1511 0.99405 60.9631 0.915205C60.7751 0.83636 60.5736 0.795689 60.3699 0.795532C59.9847 0.795596 59.6136 0.941238 59.3301 1.20362C59.0465 0.941194 58.6754 0.795544 58.2902 0.795532C58.0864 0.795746 57.8845 0.83654 57.6964 0.915568C57.5082 0.994595 57.3375 1.11029 57.1939 1.25601C56.5816 1.87496 56.5819 2.84306 57.1944 3.45938L59.3301 5.60906L61.4657 3.45938C62.0783 2.84306 62.0785 1.87496 61.4652 1.25496Z" fill="#E21D4B"/>
</g>
<rect x="58.2896" y="6.28638" width="2.08176" height="11.525" fill="#1F2937"/>
<defs>
<clipPath id="clip0_69_38">
<rect width="6.24529" height="6.28638" fill="white" transform="translate(56.2075)"/>
</clipPath>
</defs>
</svg>
