<svg width="96" height="96" viewBox="0 0 96 96" fill="none" xmlns="http://www.w3.org/2000/svg">
<path d="M46.2715 8.19353C44.7262 8.51329 43.6373 9.02902 42.2579 10.0708C40.2356 11.5974 39.0222 13.5675 38.5347 16.0945C38.3273 17.2188 38.3792 19.6531 38.6384 20.6227C38.8666 21.4582 39.5407 22.8403 40.0904 23.6139C41.2831 25.2643 43.5958 26.8527 45.6285 27.3994C46.2819 27.5747 46.7486 27.616 48.242 27.6263C49.8703 27.6366 50.1399 27.616 50.8348 27.3994C53.2098 26.6567 54.7447 25.5634 56.29 23.5108C57.0471 22.4896 57.3478 21.8398 57.6486 20.5298C58.0012 19.0342 58.0427 16.8372 57.7523 15.5685C57.2856 13.5571 55.9892 11.587 54.1432 10.0502C52.1001 8.35857 48.968 7.61591 46.2715 8.19353ZM49.5488 11.0713C52.1727 11.5664 54.4958 13.8872 55.0455 16.5484C55.3773 18.1781 55.0558 20.1585 54.2158 21.6438C53.6557 22.6443 52.4942 23.7893 51.6541 24.1812C49.6318 25.1199 46.759 25.1611 44.9233 24.2741C44.0521 23.8512 42.4239 22.2524 41.9468 21.3447C41.2208 19.9625 40.9823 18.436 41.2416 16.7031C41.4801 15.0321 41.8638 14.3204 43.2017 12.9795C44.7885 11.4117 45.7219 11.0094 47.9413 10.9888C48.5532 10.9888 49.2688 11.0197 49.5488 11.0713Z" fill="#A78BFA"/>
<path d="M58.8313 24.0989C58.7068 24.3877 58.4164 24.8828 58.1675 25.1923L57.7319 25.7596L58.0845 26.0277C59.215 26.8839 61.061 28.7714 62.1707 30.1846C64.722 33.4543 65.9043 36.0226 66.9207 40.5095C67.0866 41.2522 67.2733 41.9123 67.3355 41.9845C67.46 42.1289 68.2274 42.3352 68.663 42.3352C68.8393 42.3352 69.1505 42.2527 69.3579 42.1599L69.7313 41.9742L69.669 41.0974C69.5031 38.9933 68.6008 35.7441 67.5637 33.5368C66.1014 30.4115 63.7471 27.2449 61.4655 25.3367C60.2728 24.3465 59.2565 23.5625 59.132 23.5625C59.0905 23.5625 58.9557 23.7998 58.8313 24.0989Z" fill="#A78BFA"/>
<path d="M36.1909 24.4185C33.1833 26.6671 30.5491 29.7718 28.9519 32.9384C28.2363 34.3619 27.8837 35.2902 27.4585 36.858C26.9814 38.6115 26.7844 39.7667 26.7429 40.9839L26.7222 41.9638L27.0852 42.2113C27.3859 42.4176 27.5311 42.4485 27.9252 42.4073C28.1949 42.3763 28.5786 42.2835 28.7756 42.1907C29.2009 42.0153 29.2112 41.9844 29.6261 39.8802C30.155 37.1778 31.0054 34.7538 31.9388 33.2273C32.1566 32.8766 32.4988 32.3299 32.6959 32.0204C33.0693 31.4016 34.459 29.6274 35.0605 28.9879C35.5998 28.4206 37.7777 26.4299 38.0681 26.2442L38.3066 26.0792L37.6118 25.0581C37.2281 24.4907 36.8858 24.0163 36.8443 24.006C36.8132 23.9853 36.5124 24.1813 36.1909 24.4185Z" fill="#A78BFA"/>
<path d="M52.0273 31.515C50.9591 31.6182 49.7353 32.1339 48.6774 32.9281L48.1278 33.3407L47.4329 32.825C46.5721 32.1752 45.9187 31.8657 44.9335 31.6491C44.0001 31.4428 42.3304 31.4944 41.5525 31.7626C40.2458 32.2061 38.7005 33.4748 38.1508 34.5578C37.5908 35.6512 37.4041 36.5073 37.4145 37.8998C37.4248 39.0653 37.456 39.2819 37.7671 40.2206C38.1819 41.479 38.4308 41.9844 39.0635 42.8508C39.6961 43.7069 41.3555 45.3985 42.6933 46.5435C43.2637 47.0386 44.249 47.905 44.8713 48.4723C46.624 50.0711 47.5263 50.6899 48.0967 50.6899C48.2626 50.6899 48.6463 50.5765 48.9575 50.4321C49.5071 50.1742 50.7205 49.2871 50.9694 48.9468C51.0317 48.8539 51.7473 48.2041 52.5458 47.4924C55.8542 44.563 57.5032 42.8096 58.0529 41.6646C58.8826 39.9524 59.1833 37.58 58.7789 36.0431C57.9699 33.0416 55.2112 31.1849 52.0273 31.515ZM45.0683 34.6404C45.8358 35.0117 46.4995 35.7646 46.8521 36.6723C47.1736 37.4872 47.3914 37.6935 47.9515 37.6935C48.6256 37.6935 48.8123 37.5491 49.3412 36.6517C50.0153 35.5274 50.6687 34.8879 51.4258 34.5991C52.8259 34.073 54.2052 34.4547 55.232 35.6512C55.9787 36.5176 56.2068 37.776 55.8646 39.2304C55.4912 40.7879 54.7134 41.7884 51.6747 44.6456C48.9886 47.1726 48.3871 47.6987 48.2004 47.6987C47.7855 47.6987 42.5793 42.9127 41.6459 41.6853C40.588 40.2825 40.2043 39.1169 40.2873 37.5903C40.3495 36.4764 40.5258 35.9503 41.0132 35.4449C42.0814 34.3309 43.7512 34.0008 45.0683 34.6404Z" fill="#A78BFA"/>
<path d="M20.2298 39.0757C19.2653 39.4161 18.3941 40.2619 18.1556 41.0664C17.9481 41.7575 17.9481 48.3382 18.1556 49.4522C18.4874 51.3398 19.5038 53.7637 20.5305 55.1562C20.7898 55.5069 21.4536 56.2702 21.9929 56.8581C23.03 57.9618 26.9295 61.6647 28.6407 63.181C30.6216 64.9242 32.1669 66.4404 32.8825 67.3378C33.8574 68.5549 34.0233 68.8334 34.2618 69.6998C34.4485 70.36 34.4796 70.9479 34.5522 74.9809C34.6041 77.4771 34.6456 81.1388 34.6456 83.1089C34.6559 87.0388 34.6559 87.0285 35.2782 87.5545C35.4545 87.6989 35.776 87.8536 35.9834 87.9052C36.1908 87.9465 38.2547 87.9877 40.5674 87.9774C44.7573 87.9774 44.7677 87.9774 45.1826 87.7402C45.4107 87.6061 45.7218 87.3379 45.8567 87.1316L46.1159 86.75L46.1471 75.1976C46.1782 61.51 46.1885 61.6132 45.1826 58.9417C44.1869 56.2805 43.2328 54.8983 40.5156 52.1856C39.3748 51.051 37.9436 49.6791 37.3317 49.1428C36.7094 48.6064 35.7345 47.6368 35.1537 46.987C33.401 45.0582 32.8202 44.6972 31.4824 44.6868C29.6986 44.6868 28.5785 45.8421 28.5992 47.6987C28.6096 48.7817 28.8792 49.1634 31.4305 51.7214C32.6439 52.9385 33.7329 54.0732 33.8366 54.2485C34.127 54.7024 34.0855 55.2284 33.7329 55.7132C33.4633 56.0845 32.7062 56.5693 32.395 56.5693C32.1876 56.5693 31.4616 55.8576 30.0304 54.2382C29.2733 53.3924 28.4851 52.5569 28.2777 52.3919C26.8465 51.3088 25.4879 49.8338 24.9071 48.7095C24.1915 47.3583 24.0671 46.6776 23.9841 43.7276C23.9115 41.3449 23.8908 41.1077 23.6626 40.6022C23.1026 39.3129 21.5158 38.6115 20.2298 39.0757Z" fill="#A78BFA"/>
<path d="M74.1901 39.086C73.5886 39.2716 73.0908 39.6739 72.7589 40.2309C72.23 41.1283 72.1885 41.4068 72.147 43.9339C72.0951 47.3171 71.9085 47.9566 70.4461 49.7719C69.6165 50.7931 68.9112 51.5254 67.4385 52.8457C66.8474 53.3821 65.8725 54.3723 65.271 55.0427C63.9331 56.528 63.819 56.6106 63.1968 56.5177C62.3049 56.3836 61.7656 55.4863 61.9834 54.5167C62.0767 54.1041 62.9479 53.1655 64.2131 52.1134C65.4784 51.0613 66.92 49.5038 67.2207 48.8643C67.3763 48.5342 67.4696 48.101 67.5111 47.5234C67.5526 46.8013 67.5319 46.626 67.3348 46.2134C66.8059 45.1407 65.6547 44.5321 64.3272 44.6249C62.9375 44.7281 63.0101 44.6662 58.4053 49.4935C57.0052 50.9478 55.294 52.7426 54.6095 53.4543C52.5561 55.5894 51.3323 57.6627 50.513 60.396C49.87 62.5415 49.8907 62.0979 49.9011 74.8675C49.9114 86.162 49.9218 86.523 50.1085 86.9047C50.4092 87.472 50.9071 87.8124 51.6227 87.9258C51.9649 87.9774 53.9873 88.0083 56.1237 87.998C60.4277 87.9671 60.3655 87.9774 60.9462 87.2863C61.5374 86.5849 61.5167 86.9459 61.5167 78.1991C61.5167 69.3285 61.4959 69.6173 62.1493 68.6787C62.5538 68.0804 64.2442 66.3785 65.7688 65.0376C67.3659 63.6245 73.4537 57.6008 74.2108 56.6828C75.4346 55.2078 76.7206 53.1964 77.177 52.0102C77.3325 51.5976 77.5918 50.6487 77.7474 49.8957C78.017 48.5548 78.017 48.4826 77.9859 44.8416C77.9548 41.2108 77.9548 41.1386 77.7059 40.6125C77.1044 39.2923 75.6213 38.6424 74.1901 39.086Z" fill="#A78BFA"/>
<rect x="0.5" y="0.5" width="95" height="95" rx="7.5" stroke="black" stroke-opacity="0.05"/>
<g filter="url(#filter0_d_75_56)">
<circle cx="48" cy="40" r="12" fill="#F5F3FF"/>
<circle cx="48" cy="40" r="11" stroke="#A78BFA" stroke-width="2"/>
</g>
<path d="M53.3036 35.195C52.9304 34.8167 52.4866 34.5163 51.9977 34.3113C51.5088 34.1062 50.9845 34.0004 50.4548 34C49.453 34.0002 48.4877 34.379 47.7502 35.0614C47.0127 34.3789 46.0474 34 45.0455 34C44.5153 34.0006 43.9903 34.1067 43.501 34.3122C43.0116 34.5178 42.5674 34.8187 42.194 35.1977C40.6014 36.8076 40.6021 39.3256 42.1954 40.9287L47.7502 46.52L53.305 40.9287C54.8982 39.3256 54.8989 36.8076 53.3036 35.195Z" fill="#E21D4B"/>
<defs>
<filter id="filter0_d_75_56" x="32" y="28" width="32" height="32" filterUnits="userSpaceOnUse" color-interpolation-filters="sRGB">
<feFlood flood-opacity="0" result="BackgroundImageFix"/>
<feColorMatrix in="SourceAlpha" type="matrix" values="0 0 0 0 0 0 0 0 0 0 0 0 0 0 0 0 0 0 127 0" result="hardAlpha"/>
<feOffset dy="4"/>
<feGaussianBlur stdDeviation="2"/>
<feComposite in2="hardAlpha" operator="out"/>
<feColorMatrix type="matrix" values="0 0 0 0 0 0 0 0 0 0 0 0 0 0 0 0 0 0 0.25 0"/>
<feBlend mode="normal" in2="BackgroundImageFix" result="effect1_dropShadow_75_56"/>
<feBlend mode="normal" in="SourceGraphic" in2="effect1_dropShadow_75_56" result="shape"/>
</filter>
</defs>
</svg>
