<svg width="96" height="96" viewBox="0 0 96 96" fill="none" xmlns="http://www.w3.org/2000/svg">
<rect x="0.5" y="0.5" width="95" height="95" rx="7.5" stroke="black" stroke-opacity="0.05"/>
<circle cx="48" cy="48" r="40" fill="#F5F3FF"/>
<g filter="url(#filter0_d_75_51)">
<path fill-rule="evenodd" clip-rule="evenodd" d="M48 8L48 88C25.9086 88 8 70.0914 8 48C8.00001 25.9086 25.9086 8 48 8Z" fill="#A78BFA"/>
</g>
<path d="M34.787 58.9761H36.419V63.0681H34.787V58.9761ZM38.627 58.9761H40.259V63.0681H38.627V58.9761ZM32.519 58.1361H42.587V59.4201H32.519V58.1361ZM37.523 52.3281C39.899 52.3281 41.543 53.3001 41.543 54.8241C41.543 56.3241 39.899 57.2961 37.523 57.2961C35.159 57.2961 33.515 56.3241 33.515 54.8241C33.515 53.3001 35.159 52.3281 37.523 52.3281ZM37.523 53.6001C36.071 53.6001 35.147 54.0321 35.147 54.8241C35.147 55.6041 36.071 56.0361 37.523 56.0361C38.987 56.0361 39.899 55.6041 39.899 54.8241C39.899 54.0321 38.987 53.6001 37.523 53.6001Z" fill="#F5F3FF"/>
<path d="M26.4484 58.868C28.8484 58.868 30.3844 59.66 30.3844 60.98C30.3844 62.276 28.8484 63.068 26.4484 63.068C24.0484 63.068 22.5124 62.276 22.5124 60.98C22.5124 59.66 24.0484 58.868 26.4484 58.868ZM26.4484 60.068C24.9484 60.068 24.0964 60.38 24.0964 60.98C24.0964 61.568 24.9484 61.868 26.4484 61.868C27.9484 61.868 28.8004 61.568 28.8004 60.98C28.8004 60.38 27.9484 60.068 26.4484 60.068ZM22.6324 52.448H29.6644V53.708H22.6324V52.448ZM21.5044 56.912H31.5124V58.184H21.5044V56.912ZM25.2124 54.98H26.7964V57.236H25.2124V54.98ZM28.7404 52.448H30.3244V53.36C30.3244 54.236 30.3244 55.184 30.0244 56.336L28.4404 56.168C28.7404 55.028 28.7404 54.224 28.7404 53.36V52.448Z" fill="#F5F3FF"/>
<path d="M34.175 42.0001H41.759V46.0681H40.151V43.2601H34.175V42.0001ZM40.151 34.9561H41.759V41.4721H40.151V34.9561ZM35.711 35.5561C37.427 35.5561 38.723 36.6961 38.723 38.2801C38.723 39.8641 37.427 40.9921 35.711 40.9921C33.983 40.9921 32.687 39.8641 32.687 38.2801C32.687 36.6961 33.983 35.5561 35.711 35.5561ZM35.711 36.9121C34.871 36.9121 34.247 37.4041 34.247 38.2801C34.247 39.1561 34.871 39.6601 35.711 39.6601C36.551 39.6601 37.163 39.1561 37.163 38.2801C37.163 37.4041 36.551 36.9121 35.711 36.9121Z" fill="#F5F3FF"/>
<path d="M25.6682 35.28H27.0722V35.796C27.0722 37.932 25.3922 39.744 22.4762 40.176L21.8522 38.892C24.4082 38.556 25.6682 37.104 25.6682 35.796V35.28ZM25.9682 35.28H27.3602V35.796C27.3602 37.092 28.6322 38.556 31.1762 38.892L30.5642 40.176C27.6482 39.744 25.9682 37.932 25.9682 35.796V35.28ZM25.6802 42H27.2642V46.068H25.6802V42ZM21.4922 40.992H31.5362V42.288H21.4922V40.992Z" fill="#F5F3FF"/>
<path d="M68.6998 50.5921C67.4278 50.5921 66.5278 49.5361 66.5278 47.7601C66.5278 45.9841 67.4278 44.9641 68.6998 44.9641C69.9718 44.9641 70.8718 45.9841 70.8718 47.7601C70.8718 49.5361 69.9718 50.5921 68.6998 50.5921ZM68.6998 49.5961C69.2158 49.5961 69.6118 49.0561 69.6118 47.7601C69.6118 46.4521 69.2158 45.9601 68.6998 45.9601C68.1718 45.9601 67.7758 46.4521 67.7758 47.7601C67.7758 49.0561 68.1718 49.5961 68.6998 49.5961ZM68.9878 54.1681L73.8118 44.9641H74.8678L70.0318 54.1681H68.9878ZM75.1558 54.1681C73.8958 54.1681 72.9958 53.1241 72.9958 51.3361C72.9958 49.5601 73.8958 48.5281 75.1558 48.5281C76.4158 48.5281 77.3158 49.5601 77.3158 51.3361C77.3158 53.1241 76.4158 54.1681 75.1558 54.1681ZM75.1558 53.1721C75.6718 53.1721 76.0798 52.6441 76.0798 51.3361C76.0798 50.0281 75.6718 49.5361 75.1558 49.5361C74.6398 49.5361 74.2318 50.0281 74.2318 51.3361C74.2318 52.6441 74.6398 53.1721 75.1558 53.1721Z" fill="#A78BFA"/>
<path d="M62.618 54.1681C60.806 54.1681 59.606 52.5961 59.606 49.5241C59.606 46.4641 60.806 44.9641 62.618 44.9641C64.418 44.9641 65.618 46.4641 65.618 49.5241C65.618 52.5961 64.418 54.1681 62.618 54.1681ZM62.618 52.7881C63.386 52.7881 63.95 52.0201 63.95 49.5241C63.95 47.0401 63.386 46.3201 62.618 46.3201C61.85 46.3201 61.274 47.0401 61.274 49.5241C61.274 52.0201 61.85 52.7881 62.618 52.7881Z" fill="#A78BFA"/>
<path d="M55.3118 54.1681C53.9078 54.1681 52.9718 53.6161 52.2998 52.9561L53.1278 51.8401C53.6198 52.3321 54.2558 52.7401 55.0718 52.7401C56.0078 52.7401 56.6438 52.1521 56.6438 51.0961C56.6438 50.0641 56.0438 49.4881 55.1558 49.4881C54.6278 49.4881 54.3398 49.6201 53.8238 49.9561L53.0078 49.4281L53.2598 45.1201H58.0118V46.5961H54.7838L54.6158 48.4801C54.9638 48.3241 55.2758 48.2401 55.6838 48.2401C57.1718 48.2401 58.4198 49.1161 58.4198 51.0601C58.4198 53.0281 56.9438 54.1681 55.3118 54.1681Z" fill="#A78BFA"/>
<defs>
<filter id="filter0_d_75_51" x="4" y="8" width="48" height="88" filterUnits="userSpaceOnUse" color-interpolation-filters="sRGB">
<feFlood flood-opacity="0" result="BackgroundImageFix"/>
<feColorMatrix in="SourceAlpha" type="matrix" values="0 0 0 0 0 0 0 0 0 0 0 0 0 0 0 0 0 0 127 0" result="hardAlpha"/>
<feOffset dy="4"/>
<feGaussianBlur stdDeviation="2"/>
<feComposite in2="hardAlpha" operator="out"/>
<feColorMatrix type="matrix" values="0 0 0 0 0 0 0 0 0 0 0 0 0 0 0 0 0 0 0.25 0"/>
<feBlend mode="normal" in2="BackgroundImageFix" result="effect1_dropShadow_75_51"/>
<feBlend mode="normal" in="SourceGraphic" in2="effect1_dropShadow_75_51" result="shape"/>
</filter>
</defs>
</svg>
