<svg width="96" height="96" viewBox="0 0 96 96" fill="none" xmlns="http://www.w3.org/2000/svg">
<path d="M56.997 16.0933C54.1783 16.4462 52.218 17.0245 49.926 18.1909C47.361 19.4848 45.0008 21.4746 43.1087 23.9251C41.3629 26.1991 40.3193 28.5025 39.6658 31.5411C39.4025 32.7664 39.4318 35.903 39.7146 38.2554C39.8317 39.2258 40.017 40.9411 40.1242 42.0782C40.4363 45.3618 40.5144 46.0675 40.7679 47.8613C41.1093 50.302 42.0651 52.9583 43.4403 55.2715C44.4058 56.879 48.2485 61.8388 49.5749 63.162C50.794 64.3775 52.218 65.1126 53.8663 65.3773C54.8416 65.5243 54.8025 65.4459 54.7245 67.4063C54.6172 70.1214 54.0613 71.0036 51.6816 72.1994C50.7843 72.6503 46.6978 74.4734 44.5619 75.385C43.3818 75.8849 43.0892 76.0417 43.0697 76.2084C43.0501 76.326 43.255 77.5218 43.528 78.8549C43.8011 80.1879 44.1913 82.2365 44.4156 83.3932C44.6301 84.5498 44.9227 86.0397 45.0495 86.6964C45.1861 87.3531 45.2933 87.9216 45.2933 87.951C45.2933 87.9805 54.8903 87.9903 66.633 87.9805L87.9628 87.951L87.9921 85.1183C88.0116 82.3542 88.0116 82.2659 87.7678 81.3544C87.2801 79.5214 86.217 77.6591 84.9882 76.4926C84.3835 75.9143 84.0226 75.7183 80.4432 73.8951C78.2976 72.8169 76.2104 71.7289 75.7911 71.4839C73.8404 70.337 73.0309 68.8471 72.5628 65.5537C72.2702 63.5051 72.2019 62.5151 72.1434 59.6628L72.0849 56.7712L73.7429 55.1049C76.6103 52.2427 78.1415 49.8315 79.2729 46.4204C80.1214 43.8523 80.4432 41.6665 80.453 38.4515C80.453 34.3739 79.6532 30.7374 78.083 27.6694C76.9614 25.4836 75.9178 24.0525 74.133 22.2391C70.895 18.9457 66.6525 16.7893 62.2148 16.1914C61.9515 16.1521 61.6394 16.1031 61.5321 16.0835C61.0055 15.9659 57.9333 15.9757 56.997 16.0933ZM51.0476 29.2867C51.8084 30.4531 52.7837 31.6293 53.915 32.7468C57.2408 36.0402 61.0542 37.9516 66.7012 39.1474C67.6083 39.3434 68.3885 39.5395 68.4178 39.5983C68.447 39.6473 68.7104 40.5785 68.9932 41.6665C69.276 42.7545 69.5686 43.8131 69.6466 44.0189C69.9197 44.7051 70.5147 44.9501 71.1389 44.6267C71.7143 44.3326 71.7533 43.9307 71.3729 42.1664C71.0511 40.6667 71.0901 40.402 71.7045 39.7845C72.4653 39.0298 73.4406 38.8729 74.3671 39.363C75.4497 39.9316 75.8301 40.8725 75.635 42.4996C75.4009 44.4404 74.6499 46.0675 73.5186 47.1163C72.7091 47.8613 72.0459 48.1357 71.1584 48.0867L70.5342 48.0573L69.9782 49.7236C68.7591 53.3503 67.5302 55.5166 65.4333 57.7024C63.9216 59.2805 62.4782 60.3489 60.6544 61.2507C58.0893 62.5053 55.1829 63.0248 53.5737 62.5151C52.2668 62.1034 51.5353 61.5251 50.1796 59.8294C46.3954 55.1049 45.1763 53.2327 44.2888 50.8509C43.5573 48.8709 43.2647 47.1457 42.9526 42.7643C42.8453 41.3038 42.6893 39.3728 42.6113 38.4613L42.465 36.8047L42.9819 36.2558C44.3668 34.7856 46.5515 31.3451 48.5606 27.4929L49.3116 26.0423L49.8773 27.1989C50.1796 27.836 50.7063 28.777 51.0476 29.2867ZM69.0029 60.4273C69.0517 61.3291 69.1395 62.5151 69.1883 63.0542C69.2468 63.5933 69.315 64.2795 69.3443 64.5735C69.4321 65.5047 69.8612 67.7591 70.0758 68.4551C70.6024 70.1802 71.4217 71.5231 72.6506 72.6993L73.4016 73.4148L73.1285 73.6501C70.9243 75.5124 67.9009 77.2572 65.5406 78.0511C62.1173 79.1882 59.3865 79.3352 56.5581 78.5314C54.9976 78.0903 53.2713 77.1003 52.3155 76.0908C51.9547 75.7085 51.9059 75.6105 52.0229 75.5418C52.101 75.4928 52.5691 75.2184 53.047 74.9439C54.8806 73.9049 55.9924 72.8463 56.6556 71.4839C57.2701 70.2586 57.3871 69.5921 57.4554 67.2494L57.5139 65.2597L57.865 65.2106C58.6452 65.093 61.0835 64.2207 62.2441 63.6423C64.3995 62.5739 65.8722 61.4859 68.0471 59.3981C68.4665 58.9962 68.8274 58.6924 68.8567 58.7218C68.8859 58.7512 68.9542 59.5157 69.0029 60.4273Z" fill="#A78BFA"/>
<path d="M60.4599 40.4802C60.3526 40.5391 60.138 40.7057 59.9722 40.8625C59.4748 41.3232 58.558 41.8231 57.7193 42.078C56.822 42.3524 56.6074 42.568 56.6074 43.1856C56.6074 43.46 56.6757 43.6267 56.861 43.8031C57.0853 44.0089 57.2024 44.0383 57.8558 44.0383C58.519 44.0383 58.6946 43.9991 59.3383 43.6855C59.7381 43.4894 60.2258 43.1954 60.4013 43.0385L60.7427 42.7445L61.2108 42.9895C61.6107 43.1954 61.7473 43.2248 62.0496 43.1464C62.4592 43.0483 62.7616 42.5876 62.6836 42.1858C62.625 41.9015 61.3767 40.5881 61.0353 40.4606C60.733 40.343 60.7037 40.343 60.4599 40.4802Z" fill="#A78BFA"/>
<path d="M45.1573 40.7743C45.0208 40.9017 44.816 41.2448 44.7087 41.5388C44.5917 41.8329 44.3283 42.2544 44.1138 42.4896C43.8309 42.8033 43.7334 42.9895 43.7334 43.2346C43.7334 43.5678 44.026 43.9501 44.3186 43.9893C44.816 44.0579 45.0501 43.9697 45.4499 43.558C45.8596 43.1267 45.8596 43.1267 46.0449 43.3228C46.5325 43.8619 47.7516 44.2736 48.2978 44.0775C48.6587 43.9501 48.8537 43.5286 48.7757 43.0483C48.6977 42.5778 48.4831 42.3622 47.7809 42.0289C47.4591 41.8819 46.9519 41.529 46.6593 41.2546C45.8693 40.5096 45.567 40.4116 45.1573 40.7743Z" fill="#A78BFA"/>
<path d="M50.1412 40.9609C49.8682 41.1765 49.9072 41.0393 48.5125 45.6854C47.9078 47.6752 47.8103 48.0868 47.859 48.4985C47.9663 49.4003 48.5417 50.2334 49.3805 50.6843C50.5411 51.3215 51.6335 51.0274 51.6335 50.0766C51.6335 49.7139 51.2921 49.3023 50.6582 48.8906C50.3851 48.7142 50.1705 48.4985 50.1705 48.4103C50.1705 48.3221 50.2485 47.9594 50.3558 47.6163C51.887 42.2743 52.0236 41.6372 51.653 41.1863C51.2823 40.7158 50.5704 40.608 50.1412 40.9609Z" fill="#A78BFA"/>
<path d="M58.4993 51.5859C58.314 51.6839 58.0702 51.978 57.8361 52.3897C56.9291 53.9678 55.4271 54.9774 53.7593 55.1048C53.1351 55.1538 52.2086 54.9676 51.6332 54.6735C51.4186 54.5657 50.8334 54.0756 50.3165 53.5953C49.4778 52.8013 49.3412 52.7131 49.0096 52.7131C48.2781 52.7131 47.849 53.36 48.1709 53.9874C48.3659 54.3696 49.1559 55.2518 49.8679 55.8791C51.2236 57.0848 53.1742 57.5455 55.0467 57.1044C55.9148 56.9083 57.2509 56.1732 57.9336 55.5361C59.0845 54.4481 59.9233 53.164 59.9233 52.4681C59.9233 51.7623 59.1333 51.2722 58.4993 51.5859Z" fill="#A78BFA"/>
<path d="M71.334 17.2698C71.334 17.2894 71.5876 17.4658 71.8997 17.6717C72.9627 18.3872 73.9283 19.1713 75.0694 20.2692C79.6046 24.631 82.0721 30.2867 82.4232 37.1578L82.4817 38.3145L82.7645 37.991C84.1397 36.4031 84.9492 34.5211 85.2906 32.1393C85.3978 31.3355 85.3686 28.9536 85.232 28.2185C84.4518 24.0429 81.7697 20.3378 78.2294 18.544C77.2151 18.0245 75.8984 17.5638 74.8743 17.3678C74.2404 17.2502 71.334 17.162 71.334 17.2698Z" fill="#A78BFA"/>
<path d="M22.4523 58.1532C21.5453 58.4865 20.9113 59.3687 20.9113 60.2802C20.9113 60.6919 21.3795 63.6717 22.0719 67.7591L22.2572 68.8373L22.0524 68.9843C20.9308 69.7685 20.6578 70.0429 20.3359 70.6604C19.9458 71.4348 19.9068 72.0915 20.1603 73.5912C20.2384 74.1009 20.4237 75.2967 20.57 76.2377C20.7065 77.1787 20.9503 78.747 21.1064 79.7174C21.2624 80.6878 21.477 82.0699 21.5843 82.7756C22.0524 85.8142 22.1987 86.716 22.306 87.3139L22.4231 87.951L23.5739 87.9804C24.4322 88 24.7345 87.9706 24.7638 87.8824C24.793 87.8138 24.6175 86.6277 24.3834 85.2555C23.9835 82.8932 23.964 82.7462 24.1298 82.609C24.3542 82.4129 26.5388 80.6584 26.8997 80.3741C27.1728 80.1585 27.2118 80.1585 30.7716 80.1585H34.351L34.6436 80.4525C35.1507 80.9524 35.1703 81.6876 34.7021 82.1287L34.4485 82.3639L31.0447 82.3933L27.6409 82.4227L26.9582 83.0598C26.5876 83.4127 26.256 83.7852 26.2267 83.893C26.1585 84.1184 26.5193 86.02 26.7241 86.5199C26.9582 87.0884 27.3191 87.4805 27.8555 87.7452L28.3626 88H34.2242C40.749 88 40.7197 88 41.4707 87.3531C41.9096 86.9806 42.3192 86.3631 42.4753 85.824C42.6606 85.2163 42.5728 84.2949 42.1144 81.9522C41.8706 80.6682 41.5195 78.8254 41.3439 77.855C41.1586 76.8846 40.9245 75.63 40.8173 75.0615C40.5442 73.601 39.8615 69.9253 39.7444 69.2294C38.6813 63.1816 38.2327 61.0252 37.9206 60.3684C37.5305 59.5745 36.5162 58.5845 35.7847 58.2904L35.1995 58.0552L29.0063 58.0356C23.925 58.016 22.7449 58.0454 22.4523 58.1532ZM26.4413 61.6525C27.0557 62.2504 27.1045 63.113 26.5583 63.7403C25.5635 64.8773 23.8177 63.9657 24.0713 62.4366C24.2469 61.3192 25.6318 60.8683 26.4413 61.6525ZM30.9277 61.3976C32.0005 61.9171 32.02 63.5443 30.9472 64.0834C30.2547 64.446 29.572 64.25 29.0649 63.5639C28.7723 63.162 28.782 62.2896 29.0746 61.8681C29.494 61.28 30.2645 61.084 30.9277 61.3976ZM30.1474 70.4644C30.5376 70.6114 30.8399 70.9153 30.9667 71.3074C31.0545 71.572 31.035 71.6896 30.8887 71.9935C30.5278 72.7384 30.4498 72.758 27.8067 72.7875L25.4465 72.8267L24.3737 73.6304C23.7885 74.0813 23.1838 74.5126 23.0472 74.6008L22.8034 74.7674L22.6376 73.7088C22.5401 73.1305 22.4718 72.5718 22.4718 72.464C22.4816 72.2778 23.213 71.67 24.5882 70.7193L25.1246 70.3566H27.4946C28.9381 70.3566 29.9816 70.3958 30.1474 70.4644ZM33.5903 75.5026C33.9414 75.6888 34.1754 76.1103 34.1754 76.571C34.1754 76.9925 33.8048 77.463 33.3659 77.5904C33.1904 77.6492 31.5714 77.6884 29.7476 77.6884H26.4413L26.0804 77.9727C25.8756 78.1197 25.2319 78.6196 24.6467 79.0607L23.5934 79.884L23.5349 79.5018C23.2618 77.855 23.2228 77.4728 23.3301 77.4336C23.3886 77.4139 24.0323 76.9435 24.7735 76.3749L26.0999 75.3556H29.7086C32.732 75.3556 33.3562 75.3752 33.5903 75.5026Z" fill="#A78BFA"/>
<rect x="0.5" y="0.5" width="95" height="95" rx="7.5" stroke="black" stroke-opacity="0.05"/>
<g filter="url(#filter0_d_75_50)">
<circle cx="24" cy="24" r="12" fill="#F5F3FF"/>
<circle cx="24" cy="24" r="11" stroke="#A78BFA" stroke-width="2"/>
</g>
<path d="M23.696 29.76C22.512 29.76 20.976 29.232 20 28.336L21.056 26.752C21.936 27.44 22.768 27.856 23.696 27.856C24.8 27.856 25.328 27.344 25.328 26.448C25.328 24.272 20.464 24.48 20.464 21.136C20.464 19.088 21.872 17.792 24.064 17.792C25.6 17.792 26.592 18.4 27.408 19.28L26.224 20.64C25.568 20.016 25.008 19.696 24.192 19.696C23.248 19.696 22.704 20.144 22.704 21.024C22.704 22.992 27.584 22.688 27.584 26.272C27.584 28.32 26.208 29.76 23.696 29.76ZM23.184 31.536V28.816H24.768V31.536H23.184ZM23.184 18.544V16H24.768V18.544H23.184Z" fill="#A78BFA"/>
<defs>
<filter id="filter0_d_75_50" x="8" y="12" width="32" height="32" filterUnits="userSpaceOnUse" color-interpolation-filters="sRGB">
<feFlood flood-opacity="0" result="BackgroundImageFix"/>
<feColorMatrix in="SourceAlpha" type="matrix" values="0 0 0 0 0 0 0 0 0 0 0 0 0 0 0 0 0 0 127 0" result="hardAlpha"/>
<feOffset dy="4"/>
<feGaussianBlur stdDeviation="2"/>
<feComposite in2="hardAlpha" operator="out"/>
<feColorMatrix type="matrix" values="0 0 0 0 0 0 0 0 0 0 0 0 0 0 0 0 0 0 0.25 0"/>
<feBlend mode="normal" in2="BackgroundImageFix" result="effect1_dropShadow_75_50"/>
<feBlend mode="normal" in="SourceGraphic" in2="effect1_dropShadow_75_50" result="shape"/>
</filter>
</defs>
</svg>
